<?xml version="1.0" standalone="no"?>
<!DOCTYPE svg PUBLIC "-//W3C//DTD SVG 20010904//EN"
 "http://www.w3.org/TR/2001/REC-SVG-20010904/DTD/svg10.dtd">
<svg version="1.0" xmlns="http://www.w3.org/2000/svg"
 width="1024.000000pt" height="1024.000000pt" viewBox="0 0 1024.000000 1024.000000"
 preserveAspectRatio="xMidYMid meet">

<g transform="translate(0.000000,1024.000000) scale(0.100000,-0.100000)"
fill="#000000" stroke="none">
<path d="M9150 10004 c0 -14 4 -23 10 -19 6 3 10 15 10 26 0 10 -4 19 -10 19
-5 0 -10 -12 -10 -26z"/>
<path d="M9141 9906 c-6 -15 -10 -36 -9 -45 4 -20 -56 -51 -112 -58 -60 -8
-48 -19 33 -29 l72 -9 7 -104 c9 -131 27 -158 30 -45 2 43 1 103 0 133 -2 39
2 59 14 72 16 17 15 22 -4 66 l-21 48 -10 -29z"/>
<path d="M9210 9835 c0 -10 -9 -33 -21 -51 -23 -37 -20 -41 14 -19 12 8 46 20
76 28 l54 14 -49 13 c-27 7 -55 17 -61 23 -9 7 -13 4 -13 -8z"/>
<path d="M9391 9811 c-12 -16 -21 -31 -21 -34 0 -9 85 -2 93 8 5 7 10 7 15 0
10 -13 122 -18 122 -5 0 5 17 9 38 9 21 -1 28 -3 17 -6 -11 -3 -24 -10 -30
-15 -7 -8 -4 -9 8 -4 10 3 28 6 38 6 16 0 20 6 17 28 -3 25 -6 27 -53 27 -44
0 -50 -3 -56 -25 -4 -14 -7 -19 -8 -12 -1 6 -8 12 -16 12 -8 0 -15 5 -15 11 0
5 5 7 10 4 6 -3 15 -3 21 1 18 11 -12 24 -58 24 -23 0 -48 -6 -56 -15 -13 -13
-16 -13 -21 0 -8 23 -22 18 -45 -14z m29 -11 c0 -5 -5 -10 -11 -10 -5 0 -7 5
-4 10 3 6 8 10 11 10 2 0 4 -4 4 -10z m238 3 c-10 -2 -26 -2 -35 0 -10 3 -2 5
17 5 19 0 27 -2 18 -5z"/>
<path d="M9698 9835 c-7 -7 3 -65 11 -65 4 0 7 10 7 23 -1 16 5 23 22 25 18 3
22 -1 22 -22 0 -14 4 -26 8 -26 5 0 8 10 8 23 -1 17 5 23 27 25 22 3 27 -1 27
-17 0 -15 -7 -21 -22 -22 -20 -1 -21 -2 -4 -6 12 -3 25 2 33 12 11 17 13 17
19 2 4 -13 17 -17 48 -16 33 2 35 3 11 6 -49 7 -54 23 -7 23 31 0 42 -4 42
-15 0 -8 5 -15 10 -15 6 0 10 4 10 10 0 12 63 0 72 -14 4 -6 7 9 7 34 -1 25
-3 37 -6 28 -4 -16 -16 -18 -91 -17 -48 1 -73 4 -57 6 74 11 38 22 -72 22 -66
0 -123 -2 -125 -4z"/>
<path d="M9950 9830 c0 -5 5 -10 10 -10 6 0 10 5 10 10 0 6 -4 10 -10 10 -5 0
-10 -4 -10 -10z"/>
<path d="M9265 9770 l-20 -9 20 1 c11 0 34 4 50 8 l30 8 -30 0 c-16 0 -39 -3
-50 -8z"/>
<path d="M600 8630 c-80 -4 -165 -10 -190 -14 -57 -9 -164 -43 -213 -68 -36
-18 -63 -60 -51 -79 3 -5 47 -9 97 -9 146 -1 310 -52 797 -248 290 -116 457
-182 463 -182 2 0 7 18 11 39 21 134 295 213 579 167 103 -17 181 -41 220 -68
l27 -19 0 -155 c0 -85 3 -154 8 -154 4 0 57 4 117 10 61 5 335 21 610 35 753
38 756 38 788 59 27 18 27 19 27 127 0 99 -2 110 -22 129 -52 48 -98 52 -1068
85 -1012 35 -951 29 -1133 111 -146 66 -484 199 -538 212 -58 14 -255 32 -329
30 -30 -1 -120 -4 -200 -8z"/>
<path d="M9130 8574 c-173 -25 -273 -59 -514 -173 -213 -101 -171 -95 -661
-96 -236 -1 -486 -5 -555 -8 -69 -4 -264 -14 -435 -22 -788 -38 -724 -33 -785
-63 l-55 -27 -3 -99 c-2 -60 1 -103 8 -111 22 -27 101 -55 167 -60 77 -6 479
-28 898 -49 154 -8 292 -12 308 -9 26 5 71 52 94 98 6 11 14 49 17 85 4 35 12
72 17 82 14 26 94 64 190 89 112 30 359 33 458 6 146 -40 243 -107 258 -177 4
-24 10 -29 27 -25 11 3 74 9 139 15 92 8 129 16 167 35 27 14 113 49 192 79
79 31 238 92 353 136 225 87 375 125 547 137 80 5 87 8 91 29 6 35 -2 41 -88
68 -104 32 -171 44 -328 56 -119 9 -451 12 -507 4z"/>
<path d="M1774 8166 c-105 -24 -169 -70 -147 -104 13 -21 23 -20 101 13 117
49 322 44 441 -10 61 -28 84 -31 100 -11 18 22 -47 71 -126 96 -88 28 -281 36
-369 16z"/>
<path d="M8005 8173 c-186 -23 -295 -69 -295 -125 0 -26 38 -23 97 6 129 65
409 60 537 -8 53 -28 64 -30 85 -17 40 25 -68 100 -180 125 -70 15 -196 25
-244 19z"/>
<path d="M1770 8055 c-125 -28 -120 -22 -120 -139 l0 -101 -45 -27 c-45 -27
-45 -28 -45 -83 0 -53 1 -54 23 -45 56 25 202 51 307 56 129 7 277 -11 379
-46 33 -11 64 -20 69 -20 11 0 0 67 -15 95 -6 11 -27 36 -47 54 l-36 35 0 98
0 98 -27 -1 c-16 -1 -53 6 -83 15 -76 25 -274 30 -360 11z m248 -35 c98 -11
152 -30 152 -56 0 -12 -6 -15 -24 -10 -118 30 -295 31 -389 2 -46 -14 -47 -14
-47 9 0 28 13 34 115 50 102 17 85 16 193 5z m102 -103 c46 -10 56 -16 58 -36
3 -19 0 -22 -13 -17 -9 3 -68 11 -132 17 -116 10 -249 1 -309 -21 -21 -8 -24
-7 -24 14 0 21 8 26 58 39 69 18 282 20 362 4z"/>
<path d="M7905 8045 c-137 -33 -149 -39 -159 -79 -5 -23 -4 -58 2 -89 l10 -51
-45 -39 c-28 -26 -42 -45 -38 -55 3 -8 -2 -35 -11 -59 -9 -24 -14 -46 -11 -49
3 -3 18 1 34 10 44 22 230 55 356 62 168 10 315 -11 440 -61 13 -6 17 -2 17
18 0 44 -18 75 -67 122 l-48 44 0 98 0 97 -75 19 c-101 25 -323 32 -405 12z
m368 -50 c44 -16 68 -38 54 -51 -2 -3 -33 2 -68 11 -91 24 -321 17 -401 -11
-55 -20 -58 -20 -58 -3 0 23 39 43 110 58 30 6 64 13 75 15 45 11 241 -3 288
-19z m10 -94 c52 -21 78 -43 65 -57 -3 -2 -45 5 -94 17 -76 18 -108 20 -214
16 -69 -3 -152 -13 -185 -21 -33 -8 -62 -13 -64 -10 -7 7 23 36 49 47 106 43
340 48 443 8z"/>
<path d="M8502 7933 c2 -63 7 -88 17 -91 11 -4 13 3 8 28 -4 18 -7 59 -7 91 0
35 -4 59 -11 59 -7 0 -9 -30 -7 -87z"/>
<path d="M1265 7950 c-126 -9 -127 -9 -461 -131 -400 -145 -419 -151 -519
-156 -63 -4 -111 0 -159 11 -38 9 -71 15 -72 13 -2 -2 -1 -32 2 -66 6 -55 10
-64 36 -77 114 -59 410 -82 838 -67 l275 10 128 47 c145 52 183 70 188 88 3 7
2 85 -1 173 l-5 160 -70 1 c-38 1 -119 -2 -180 -6z"/>
<path d="M8551 7891 c-6 -11 -11 -77 -11 -153 l0 -133 49 -27 c53 -30 323
-148 398 -173 100 -35 285 -36 668 -5 145 12 311 41 383 68 l47 18 3 63 c3 62
2 63 -20 57 -134 -36 -229 -31 -420 24 -142 41 -474 159 -585 209 -110 50
-152 58 -350 66 -145 6 -152 6 -162 -14z"/>
<path d="M7680 7849 l-45 -41 48 37 c41 33 53 45 45 45 -2 0 -23 -18 -48 -41z"/>
<path d="M1767 7679 c-156 -23 -247 -61 -260 -109 -7 -26 1 -25 54 4 96 52
290 79 464 66 156 -12 205 -23 322 -71 45 -18 53 -4 17 31 -66 66 -391 109
-597 79z"/>
<path d="M7918 7660 c-81 -10 -199 -34 -252 -52 -48 -16 -86 -62 -67 -81 10
-10 14 -9 22 5 12 21 110 53 223 73 184 31 535 14 602 -30 13 -8 30 -15 38
-15 8 0 17 -6 20 -12 3 -7 4 1 3 17 -2 25 -10 34 -47 52 -93 46 -343 66 -542
43z"/>
<path d="M1705 7574 c-111 -20 -199 -51 -222 -77 -11 -12 -30 -42 -43 -67 -20
-40 -24 -63 -28 -194 -5 -157 6 -243 34 -268 9 -7 57 -36 107 -64 l92 -50 -2
-39 c-2 -28 -12 -48 -33 -70 -19 -20 -37 -53 -45 -86 -20 -72 -20 -72 18 -35
68 68 204 100 397 93 146 -5 217 -23 295 -74 l40 -25 -42 44 -43 44 0 168 c0
160 1 167 19 161 43 -13 134 -24 162 -18 25 5 29 2 29 -15 0 -14 -22 -40 -62
-73 -35 -29 -64 -55 -66 -59 -1 -4 11 -10 27 -13 44 -9 198 -68 436 -167 116
-48 370 -154 565 -235 195 -81 400 -165 455 -186 56 -20 116 -44 135 -53 19
-8 99 -41 178 -71 78 -31 161 -65 185 -75 40 -19 74 -20 797 -20 l756 0 199
74 c353 131 741 281 1085 421 118 48 286 116 374 151 173 70 216 91 216 102 0
4 -32 37 -71 73 -55 52 -70 72 -67 90 4 33 44 49 125 52 l68 2 3 -156 c2 -155
2 -157 -23 -187 -36 -43 -31 -56 13 -28 58 37 127 57 235 69 162 18 317 -14
418 -89 l50 -37 -16 39 c-16 38 -45 80 -84 121 -26 27 -28 71 -3 79 61 20 148
74 187 115 l45 48 0 173 c-1 195 -6 232 -47 290 -36 53 -71 74 -156 93 -226
51 -617 32 -757 -38 -38 -19 -48 -31 -69 -82 -21 -52 -25 -80 -29 -205 -3 -88
0 -178 8 -229 10 -69 10 -85 -1 -92 -8 -4 -149 -63 -314 -130 -397 -161 -656
-270 -789 -332 l-109 -51 -76 39 c-60 31 -106 69 -216 175 -165 160 -245 221
-375 288 -196 102 -322 132 -559 132 -175 0 -248 -9 -371 -46 -212 -65 -413
-203 -570 -391 -41 -49 -85 -98 -99 -111 -36 -32 -136 -82 -164 -82 -14 0
-101 35 -193 79 -213 99 -675 295 -1196 507 l-47 19 -3 207 -3 206 -30 44
c-38 53 -88 82 -191 109 -105 29 -417 36 -539 13z m478 -369 c39 -8 106 -32
147 -52 64 -32 77 -43 87 -73 6 -19 8 -38 4 -43 -8 -8 -85 17 -165 53 -70 32
-184 49 -321 49 -187 0 -328 -33 -427 -99 -23 -16 -46 -30 -50 -30 -5 0 -8 18
-8 39 0 35 5 43 48 75 61 44 172 82 282 95 106 12 307 5 403 -14z m6181 -24
c89 -24 154 -58 185 -98 22 -26 37 -70 29 -78 -3 -3 -54 17 -114 44 -140 62
-213 76 -394 75 -160 0 -219 -11 -383 -69 -54 -19 -100 -35 -103 -35 -2 0 -4
11 -4 24 0 42 83 99 191 130 140 41 450 44 593 7z m-6724 -205 c0 -41 -4 -77
-10 -81 -13 -8 -107 41 -138 72 l-26 26 70 28 c104 42 104 42 104 -45z m6846
29 c64 -28 72 -40 44 -70 -22 -23 -116 -77 -157 -90 -23 -6 -23 -5 -23 93 0
54 3 101 6 104 7 8 67 -9 130 -37z m-3151 -74 c220 -59 381 -192 400 -329 27
-197 -259 -354 -645 -353 -168 1 -291 24 -404 79 -100 48 -139 80 -176 146
-59 102 -33 204 81 312 68 63 123 96 221 128 111 38 168 45 313 42 94 -3 152
-9 210 -25z"/>
<path d="M2342 6694 c1 -55 -2 -110 -6 -123 -8 -21 -7 -23 10 -17 68 28 84 23
291 -86 109 -58 284 -154 388 -213 105 -59 228 -129 275 -155 47 -26 148 -83
225 -127 451 -256 555 -314 700 -390 88 -46 172 -96 187 -110 14 -13 47 -63
74 -110 26 -46 62 -95 79 -109 l32 -24 510 0 c591 0 532 -12 602 118 52 97 93
138 191 190 41 21 125 65 185 97 61 32 232 124 380 205 331 181 576 310 935
493 151 77 277 141 279 143 5 4 1 207 -4 212 -2 3 -57 -19 -122 -48 -126 -56
-408 -171 -743 -302 -499 -195 -625 -244 -785 -304 l-170 -65 -760 2 -760 1
-65 23 c-84 31 -829 332 -940 380 -47 20 -116 49 -155 65 -197 78 -598 247
-823 347 -9 4 -12 -17 -10 -93z"/>
<path d="M1744 6635 c-33 -7 -89 -27 -122 -44 l-62 -31 0 -96 c0 -89 2 -97 25
-118 52 -48 253 -82 420 -72 165 10 269 46 299 105 l14 26 94 -8 c129 -11 175
-27 313 -105 66 -37 228 -128 360 -202 132 -73 276 -154 320 -180 181 -107
485 -279 561 -318 45 -22 142 -76 215 -120 182 -108 309 -176 309 -165 0 23
-89 146 -121 166 -18 13 -95 55 -169 94 -74 39 -252 137 -395 219 -143 81
-294 166 -335 189 -41 24 -156 89 -255 145 -344 195 -551 309 -605 331 -42 17
-82 23 -172 27 -114 4 -118 5 -118 27 0 51 -98 113 -215 134 -79 15 -286 12
-361 -4z m286 -175 c101 -13 170 -35 199 -61 19 -18 21 -24 9 -35 -40 -40
-297 -67 -438 -45 -95 15 -170 39 -170 55 0 34 78 69 185 85 82 12 128 12 215
1z"/>
<path d="M7954 6640 c-28 -4 -81 -17 -117 -29 -87 -29 -117 -63 -129 -145 -2
-11 -10 -20 -18 -21 -39 -6 -774 -383 -1110 -570 -199 -111 -455 -248 -587
-316 -75 -38 -151 -80 -168 -93 -32 -25 -130 -176 -114 -176 10 0 270 142 309
170 167 115 1206 685 1543 845 104 49 126 64 126 82 1 33 20 38 26 6 11 -49
20 -57 95 -81 178 -55 380 -56 546 -1 82 27 96 43 102 127 4 67 3 70 -29 107
-19 21 -53 47 -77 57 -93 41 -264 58 -398 38z m287 -190 c66 -13 139 -47 139
-66 0 -48 -270 -90 -430 -65 -98 15 -170 39 -170 57 0 20 43 45 113 65 71 20
262 25 348 9z"/>
<path d="M4000 5551 c14 -12 59 -47 100 -78 110 -83 252 -197 273 -221 16 -17
17 -24 6 -44 -21 -42 -268 -438 -419 -673 -81 -126 -207 -324 -280 -440 -73
-115 -137 -218 -144 -228 -10 -16 -26 -17 -196 -12 -102 3 -232 10 -290 16
-219 24 -554 -17 -683 -83 l-38 -19 -77 29 c-42 16 -122 41 -177 56 -55 14
-224 59 -375 100 -151 41 -331 89 -400 108 l-125 33 -360 -1 c-332 0 -545 -11
-563 -28 -21 -22 62 -33 513 -71 160 -14 322 -30 360 -36 68 -11 589 -118 870
-179 151 -33 353 -52 341 -32 -8 13 94 46 189 61 108 18 443 24 557 11 79 -9
125 -9 179 -1 89 13 249 23 249 16 0 -12 -33 -70 -94 -163 -34 -53 -100 -162
-146 -242 -72 -126 -120 -209 -308 -535 -19 -33 -50 -91 -68 -130 l-34 -69 0
-332 0 -331 37 -56 c20 -31 71 -120 112 -199 42 -78 81 -143 86 -145 7 -2 8
20 3 64 -4 38 -11 274 -14 525 l-7 458 64 29 c253 116 363 158 624 239 160 50
360 109 445 133 85 23 156 42 157 43 1 1 -10 20 -25 43 -15 22 -31 48 -37 57
-9 16 -30 11 -215 -49 -384 -126 -567 -193 -837 -308 -146 -63 -192 -71 -147
-27 44 43 305 170 499 242 112 42 506 171 588 193 37 10 67 22 67 26 0 4 -15
39 -34 76 -18 37 -37 78 -40 91 -4 12 -13 22 -20 22 -15 0 -508 -248 -624
-314 -42 -24 -115 -63 -162 -86 -47 -23 -97 -51 -112 -62 -38 -27 -35 -6 6 39
18 21 85 121 148 223 63 102 149 237 191 301 l77 117 151 23 c177 27 178 38 2
19 -68 -7 -125 -11 -128 -9 -2 3 93 155 212 339 118 184 250 389 293 455 42
66 126 195 186 286 60 92 126 194 147 228 l38 62 18 -23 c10 -13 57 -99 103
-193 47 -93 97 -192 112 -219 26 -49 26 -53 24 -220 l-3 -171 -176 -5 c-132
-4 -180 -9 -193 -19 -45 -38 -45 -37 -46 -646 l-2 -578 26 -26 26 -26 568 -3
c312 -2 582 0 600 3 23 4 39 16 52 38 19 31 20 55 20 614 l0 581 -26 31 -25
30 -152 3 -152 3 -3 174 -2 175 53 90 c63 105 130 224 177 314 18 34 38 62 44
62 6 0 61 -80 122 -178 62 -97 194 -305 294 -462 300 -468 340 -531 668 -1060
64 -102 144 -227 180 -278 35 -51 61 -96 57 -100 -7 -7 -134 56 -450 224 -178
95 -482 255 -496 262 -4 2 -12 -19 -18 -45 -7 -26 -25 -72 -41 -101 -15 -28
-25 -54 -22 -56 4 -2 59 -20 122 -41 275 -90 654 -228 760 -275 63 -29 151
-68 195 -87 44 -20 86 -40 93 -45 11 -10 18 -48 8 -48 -14 0 -194 68 -308 116
-233 99 -920 333 -926 315 -2 -6 -21 -34 -43 -61 -49 -62 -50 -77 -5 -72 23 3
130 -23 318 -78 425 -122 526 -155 723 -235 99 -40 197 -78 217 -84 21 -7 41
-18 45 -24 4 -7 6 -249 4 -539 -2 -445 -1 -528 11 -528 8 0 38 53 72 127 32
71 76 160 97 200 l39 72 0 331 0 330 -74 138 c-76 141 -286 506 -397 692 -168
281 -268 454 -264 458 2 2 32 -1 67 -7 35 -5 126 -17 203 -26 77 -8 173 -23
214 -32 56 -13 77 -14 91 -5 59 37 382 41 456 6 30 -14 39 -14 97 0 35 9 107
16 163 17 151 1 87 16 -165 40 -217 20 -268 21 -626 3 -75 -4 -211 -1 -322 6
l-193 13 -79 126 c-43 69 -147 234 -231 366 -360 565 -433 680 -448 712 l-16
33 60 61 c32 34 114 106 182 161 67 55 122 102 122 103 0 1 -56 -34 -125 -79
-68 -44 -161 -101 -206 -126 -114 -64 -229 -138 -248 -161 -16 -19 -30 -20
-512 -17 l-496 3 -55 50 c-30 28 -88 68 -129 91 -41 22 -144 83 -229 135 -85
52 -168 103 -185 113 l-30 18 25 -21z m1380 -708 c2 -2 -2 -16 -11 -31 l-15
-27 -249 -3 c-226 -2 -251 -1 -262 15 -7 9 -13 25 -13 35 0 16 17 18 243 21
229 2 296 0 307 -10z m-136 -375 l1 -183 -142 -3 -143 -3 0 185 c0 165 2 185
17 188 9 2 72 2 141 1 l124 -2 2 -183z m-50 -318 c103 -26 168 -63 241 -135
217 -216 217 -562 0 -781 -193 -195 -530 -202 -738 -15 -136 122 -204 371
-151 552 86 291 361 453 648 379z"/>
<path d="M4943 3952 c-63 -23 -115 -61 -153 -114 -106 -145 -89 -353 38 -469
176 -163 449 -112 548 103 25 55 29 75 29 153 0 80 -3 97 -29 148 -35 69 -109
140 -174 169 -66 30 -190 35 -259 10z"/>
<path d="M5784 4157 c3 -10 6 -233 6 -495 l0 -477 60 100 c135 225 151 405 59
645 -25 66 -140 274 -125 227z"/>
<path d="M9367 4154 c-1 -1 -121 -4 -267 -6 l-265 -5 -120 -37 c-66 -21 -232
-74 -369 -118 -136 -44 -264 -82 -285 -85 -35 -6 -80 -44 -81 -70 0 -6 -5 -15
-12 -19 -19 -12 -287 -72 -293 -66 -3 3 -2 27 1 54 6 42 4 52 -14 68 -20 19
-36 20 -219 19 -109 0 -216 -3 -238 -7 l-40 -7 -3 -68 c-3 -79 14 -75 -185
-47 -177 24 -236 28 -236 15 -1 -17 301 -85 378 -85 22 0 41 -4 41 -10 0 -5
-20 -26 -45 -47 -43 -36 -78 -103 -62 -119 4 -4 54 3 112 15 132 28 379 31
520 5 125 -22 120 -23 117 4 -3 32 -49 95 -89 122 -41 28 -42 40 -1 40 17 0
84 16 149 35 65 19 124 35 131 35 7 0 41 -22 74 -48 59 -46 65 -49 160 -61 55
-7 135 -21 179 -31 44 -10 121 -21 170 -24 428 -28 418 -28 530 -12 61 8 189
22 285 31 160 14 273 27 358 41 19 3 32 11 32 19 0 8 -3 15 -7 15 -32 0 -544
32 -648 40 -71 6 -222 22 -335 36 -266 32 -442 40 -572 26 -152 -17 -230 -19
-235 -6 -2 7 17 11 56 12 132 2 457 73 757 166 209 64 219 66 694 102 195 15
357 29 360 31 14 12 -37 22 -149 28 -69 3 -172 9 -229 13 -57 4 -104 7 -105 6z
m-1768 -310 c27 -6 31 -10 31 -40 0 -33 -1 -33 -32 -26 -37 8 -307 10 -353 2
-27 -4 -30 -2 -33 22 -3 22 2 28 20 32 13 3 32 7 43 9 32 7 290 8 324 1z m25
-123 c26 -22 18 -29 -21 -20 -50 11 -251 11 -333 -1 -67 -9 -81 -7 -63 11 19
19 107 28 255 25 103 -1 151 -6 162 -15z"/>
<path d="M4347 4117 c-70 -106 -126 -262 -140 -387 -14 -126 5 -213 78 -358
92 -183 84 -210 85 311 0 251 -2 457 -4 457 -2 0 -10 -10 -19 -23z"/>
<path d="M2720 3793 c-43 -9 -48 -20 -47 -93 2 -70 2 -70 -25 -70 -51 0 -243
41 -280 60 -25 13 -77 22 -165 30 -256 22 -374 22 -718 1 -187 -11 -502 -26
-700 -32 -198 -6 -362 -13 -365 -16 -9 -8 26 -23 92 -38 74 -17 403 -48 683
-65 99 -6 189 -13 200 -16 100 -23 169 -22 343 7 98 16 242 38 321 49 112 15
158 26 209 50 78 36 92 37 92 6 0 -21 9 -26 97 -51 54 -15 123 -28 153 -29 30
0 58 -5 62 -10 3 -5 20 -3 40 5 24 10 81 14 216 14 100 0 182 3 182 7 0 17
-64 23 -232 23 -98 0 -178 3 -178 6 0 14 49 19 175 18 153 -1 251 -10 247 -23
-5 -13 21 -26 33 -16 5 4 61 22 123 38 62 17 120 36 128 43 33 27 -7 27 -115
-1 -63 -16 -119 -26 -124 -23 -4 3 -7 28 -6 56 3 47 1 51 -23 58 -33 9 -385
19 -418 12z m330 -41 c51 -7 55 -9 58 -36 4 -28 3 -29 -35 -23 -21 4 -109 7
-195 7 l-158 0 0 23 c0 13 3 27 7 30 8 9 249 7 323 -1z"/>
<path d="M2785 3573 c-88 -13 -134 -34 -179 -83 -33 -35 -46 -57 -46 -78 l0
-29 53 18 c111 37 426 45 551 13 32 -8 67 20 87 68 11 28 10 32 -12 49 -47 36
-107 47 -269 47 -85 0 -168 -2 -185 -5z"/>
<path d="M7280 3523 c-57 -4 -155 -21 -197 -34 -22 -7 -33 -17 -33 -30 0 -16
4 -17 26 -9 142 54 618 51 697 -5 30 -21 37 -19 37 14 0 27 -3 29 -57 40 -135
26 -317 35 -473 24z"/>
<path d="M7153 3424 c-46 -7 -99 -20 -118 -28 l-35 -15 88 -136 c73 -114 90
-134 107 -129 11 3 95 8 186 11 222 7 432 -17 479 -55 18 -14 19 -20 8 -35
-12 -16 -18 -16 -103 -1 -65 12 -153 17 -317 18 -124 1 -229 -2 -232 -5 -4 -3
18 -49 47 -101 30 -52 71 -126 91 -165 l37 -71 117 -4 c83 -3 126 -9 149 -21
49 -26 57 -21 33 21 -18 32 -20 51 -18 136 l3 99 55 13 c30 6 79 18 108 25
l52 14 0 166 c0 189 -5 203 -80 233 -113 45 -470 62 -657 30z"/>
<path d="M2790 3401 c-63 -5 -140 -13 -171 -20 -51 -11 -57 -15 -61 -40 l-4
-28 47 18 c87 33 354 49 504 29 67 -8 84 -4 85 21 0 19 -238 30 -400 20z"/>
<path d="M2663 3295 c-88 -13 -123 -30 -149 -70 -24 -37 -16 -340 9 -379 23
-34 40 -34 27 0 -12 31 -13 94 -1 112 16 26 151 53 294 59 l138 6 81 135 c63
105 78 136 67 143 -21 13 -372 9 -466 -6z"/>
<path d="M2805 2949 c-129 -7 -209 -21 -220 -39 -3 -5 26 -26 66 -45 l71 -36
-5 -92 c-3 -51 -8 -102 -12 -114 l-7 -22 58 18 59 17 11 65 c8 44 27 93 63
158 28 51 51 94 49 95 -2 1 -61 -2 -133 -5z"/>
<path d="M7400 2571 c0 -103 -3 -101 115 -101 122 -1 215 -32 215 -73 0 -6
-29 -7 -72 -3 -40 3 -115 9 -165 13 l-93 6 0 -43 0 -43 103 6 c112 7 215 28
227 47 13 21 21 199 10 219 -5 11 -25 24 -42 30 -38 12 -192 31 -255 31 l-43
0 0 -89z"/>
<path d="M2722 2566 c-39 -8 -71 -21 -87 -36 -22 -21 -25 -31 -25 -99 0 -42 4
-81 8 -87 10 -17 178 -67 198 -60 10 4 14 15 12 33 l-3 28 -91 -4 c-96 -3
-113 3 -95 37 10 19 93 42 152 42 34 0 35 3 31 90 -4 79 2 76 -100 56z"/>
<path d="M5137 834 c-1 -1 -187 -4 -413 -8 -414 -6 -443 -8 -724 -27 -342 -23
-404 -38 -254 -58 123 -17 181 -20 739 -37 269 -8 1493 -9 1625 0 52 3 181 8
285 12 337 10 501 21 524 34 13 6 32 9 43 6 14 -3 17 -1 11 5 -17 17 -90 25
-303 34 -63 2 -185 7 -270 11 -85 3 -177 7 -205 9 -27 1 -246 6 -485 10 -239
4 -466 8 -503 8 -38 1 -69 1 -70 1z"/>
<path d="M8127 402 c-27 -28 -42 -56 -53 -97 -8 -31 -13 -60 -10 -63 4 -3 17
5 30 17 13 12 39 24 58 27 29 5 37 2 51 -20 26 -39 47 -34 40 9 -4 28 -2 35
11 35 9 0 17 -8 17 -17 1 -10 2 -25 3 -33 0 -8 12 -17 25 -18 22 -4 23 -1 17
32 -7 36 -7 36 28 36 31 0 36 -4 46 -35 9 -26 17 -35 34 -35 12 0 35 -13 51
-30 32 -33 50 -38 59 -14 9 24 7 28 -7 15 -26 -21 -115 100 -96 130 5 8 9 31
9 51 l0 37 -85 3 -85 3 0 -52 c0 -70 -20 -70 -57 -1 -15 28 -33 53 -38 55 -6
2 -28 -14 -48 -35z m293 -27 c0 -11 -12 -15 -49 -15 -47 0 -68 9 -54 24 3 3
28 6 55 6 36 0 48 -4 48 -15z m-232 -33 c14 -21 13 -22 -22 -22 -21 0 -35 3
-33 8 2 4 7 15 10 25 8 23 25 18 45 -11z"/>
<path d="M8800 417 c0 -17 -1 -17 -29 -1 -58 34 -121 -9 -121 -82 0 -68 59
-102 125 -72 27 12 38 41 39 95 1 18 4 33 9 33 64 1 60 6 55 -65 -4 -62 -3
-66 16 -63 18 3 21 11 24 66 3 61 3 62 32 62 23 0 30 5 30 19 0 18 -9 20 -90
23 -81 3 -90 1 -90 -15z m-46 -40 c22 -16 18 -65 -6 -81 -41 -25 -81 52 -42
81 10 7 21 13 24 13 3 0 14 -6 24 -13z"/>
<path d="M9065 430 l-70 -5 -3 -88 c-3 -80 -1 -88 15 -85 11 2 20 15 23 33 8
46 39 43 72 -5 15 -22 35 -40 43 -40 13 0 13 6 -4 38 -17 33 -17 40 -5 57 15
20 19 92 7 97 -5 2 -39 1 -78 -2z m43 -50 c13 0 20 -4 17 -10 -3 -5 -24 -10
-46 -10 -29 0 -39 4 -39 16 0 12 6 15 23 10 12 -3 32 -6 45 -6z"/>
<path d="M9187 433 c-12 -12 -8 -158 5 -171 18 -18 164 -16 171 3 8 20 -5 26
-74 32 -42 4 -59 10 -59 20 0 11 12 14 53 12 48 -3 52 -1 55 20 4 22 2 22 -52
16 -49 -6 -56 -5 -56 10 0 14 8 16 55 13 46 -2 56 0 61 14 3 10 2 22 -1 28 -7
11 -148 14 -158 3z"/>
<path d="M9449 432 c-81 -2 -89 -5 -89 -22 0 -15 7 -20 25 -20 24 0 25 -2 25
-70 0 -63 2 -70 20 -70 18 0 20 7 20 70 l0 70 35 0 35 0 0 -70 0 -70 85 0 c78
0 85 2 85 20 0 18 -7 20 -65 20 -50 0 -65 3 -65 15 0 10 15 15 57 17 46 2 59
7 61 21 3 14 -4 17 -41 17 -50 0 -77 7 -77 21 0 5 27 9 60 9 48 0 61 4 70 19
9 18 5 20 -71 23 -45 2 -121 2 -170 0z"/>
<path d="M9882 428 c-7 -7 -12 -42 -12 -87 0 -42 -4 -71 -8 -64 -4 6 -30 13
-57 15 l-50 3 -6 43 c-3 23 -3 44 -1 47 3 3 29 5 59 5 46 0 53 3 53 20 0 18
-7 20 -64 20 -83 0 -96 -12 -96 -90 0 -82 10 -90 120 -90 94 0 100 3 100 56 0
21 5 24 35 24 30 0 35 -3 35 -24 0 -38 10 -56 32 -56 17 0 19 7 18 68 -1 37 1
75 5 85 9 23 -8 42 -30 33 -12 -4 -15 -13 -11 -30 7 -27 -7 -36 -54 -36 -25 0
-29 4 -32 32 -3 35 -17 45 -36 26z"/>
<path d="M8475 418 c-23 -71 -24 -91 -4 -120 27 -37 54 -51 88 -43 39 8 71 45
78 88 4 29 1 40 -20 61 -22 22 -35 26 -82 26 -36 0 -57 -4 -60 -12z m93 -44
c12 -8 22 -22 22 -30 0 -16 -35 -54 -49 -54 -19 0 -41 32 -41 60 0 40 30 51
68 24z"/>
<path d="M8613 213 c9 -2 25 -2 35 0 9 3 1 5 -18 5 -19 0 -27 -2 -17 -5z"/>
<path d="M8670 195 c0 -14 4 -25 9 -25 4 0 6 11 3 25 -2 14 -6 25 -8 25 -2 0
-4 -11 -4 -25z"/>
<path d="M8696 212 c6 -4 14 -16 18 -27 6 -13 10 -16 13 -7 8 20 -5 42 -24 42
-11 0 -14 -3 -7 -8z"/>
<path d="M8776 208 c-11 -23 1 -38 27 -37 16 1 17 3 5 6 -9 2 -19 14 -21 26
-3 19 -5 20 -11 5z"/>
<path d="M8808 213 c7 -3 16 -2 19 1 4 3 -2 6 -13 5 -11 0 -14 -3 -6 -6z"/>
<path d="M8847 199 c4 -13 8 -18 11 -10 2 7 -1 18 -6 23 -8 8 -9 4 -5 -13z"/>
<path d="M8874 207 c3 -10 6 -23 6 -28 0 -5 5 -9 10 -9 14 0 12 13 -6 36 -14
17 -15 17 -10 1z"/>
<path d="M8908 213 c7 -3 16 -2 19 1 4 3 -2 6 -13 5 -11 0 -14 -3 -6 -6z"/>
<path d="M8955 212 c11 -4 20 -13 20 -21 0 -8 5 -16 12 -18 7 -3 9 3 6 16 -4
17 0 20 26 19 22 -1 31 -7 35 -22 3 -16 4 -15 3 4 -2 23 -6 25 -62 27 -33 1
-51 -1 -40 -5z"/>
<path d="M9085 195 c0 -14 6 -25 13 -25 8 0 12 9 10 22 -4 30 -23 33 -23 3z"/>
<path d="M9154 193 c13 -28 26 -30 19 -3 -3 12 0 20 6 20 7 0 10 -4 7 -8 -6
-11 11 -38 19 -30 13 12 -14 43 -37 43 -22 1 -23 -2 -14 -22z"/>
<path d="M9238 213 c6 -2 12 -14 12 -26 0 -14 3 -18 10 -11 15 15 2 44 -19 43
-10 0 -11 -2 -3 -6z"/>
<path d="M9280 210 c0 -5 6 -7 14 -4 9 3 17 -3 21 -15 7 -22 25 -29 25 -10 0
14 -30 38 -47 39 -7 0 -13 -4 -13 -10z"/>
<path d="M9353 213 c9 -2 23 -2 30 0 6 3 -1 5 -18 5 -16 0 -22 -2 -12 -5z"/>
<path d="M9655 211 c20 -4 30 -12 29 -24 -1 -9 2 -17 7 -17 5 0 9 9 9 19 0 21
-20 32 -53 30 -16 -1 -14 -3 8 -8z"/>
<path d="M9800 210 c14 -4 19 -8 13 -9 -18 -1 -16 -31 1 -31 19 0 27 25 13 39
-6 6 -20 11 -31 10 -18 -1 -17 -2 4 -9z"/>
<path d="M8550 195 c0 -8 7 -15 16 -15 14 0 14 3 4 15 -7 8 -14 15 -16 15 -2
0 -4 -7 -4 -15z"/>
<path d="M9500 196 c0 -17 14 -29 23 -20 8 8 -3 34 -14 34 -5 0 -9 -6 -9 -14z"/>
<path d="M9554 198 c-4 -6 -3 -8 4 -4 5 3 12 1 14 -5 2 -7 9 -10 16 -8 8 3 5
9 -7 16 -15 9 -22 10 -27 1z"/>
<path d="M9732 191 c4 -22 25 -24 30 -4 4 13 -1 19 -14 19 -11 0 -17 -6 -16
-15z"/>
<path d="M10017 204 c-3 -4 -31 -6 -62 -5 -31 0 -54 -3 -51 -7 2 -4 34 -9 70
-10 55 -2 65 0 60 13 -7 17 -8 18 -17 9z"/>
<path d="M8615 190 c27 -12 35 -12 35 0 0 6 -12 10 -27 9 -25 0 -26 -1 -8 -9z"/>
<path d="M8930 185 c0 -8 6 -15 13 -15 8 0 14 7 14 15 0 8 -6 15 -14 15 -7 0
-13 -7 -13 -15z"/>
<path d="M9390 188 c0 -13 8 -18 25 -18 25 0 34 14 16 24 -5 4 -12 0 -14 -6
-4 -10 -8 -9 -16 2 -9 13 -11 13 -11 -2z"/>
<path d="M9453 185 c0 -8 9 -15 20 -15 16 0 17 3 7 15 -7 8 -16 15 -20 15 -3
0 -7 -7 -7 -15z"/>
<path d="M9616 192 c-3 -6 1 -13 10 -16 23 -9 28 -2 10 13 -8 7 -17 8 -20 3z"/>
<path d="M9860 191 c0 -6 5 -13 10 -16 6 -3 10 1 10 9 0 9 -4 16 -10 16 -5 0
-10 -4 -10 -9z"/>
</g>
</svg>
